<svg aria-hidden="true" style="position: absolute; width: 0; height: 0; overflow: hidden;" version="1.1" xmlns="http://www.w3.org/2000/svg" xmlns:xlink="http://www.w3.org/1999/xlink">
<defs>
<symbol id="icon-baby-19-svgrepo-com" viewBox="0 0 32 32">
<path d="M19.564 10.636c-0.183-0.053-0.373 0.053-0.425 0.236-0.038 0.133-0.119 0.249-0.226 0.331s-0.241 0.131-0.388 0.132c-0.148-0.001-0.281-0.049-0.39-0.133s-0.189-0.201-0.226-0.335c-0.050-0.183-0.24-0.291-0.423-0.24s-0.291 0.24-0.241 0.423c0.078 0.282 0.245 0.525 0.469 0.697s0.506 0.277 0.811 0.277c0.302 0 0.583-0.102 0.806-0.273s0.39-0.411 0.47-0.689c0.052-0.183-0.054-0.373-0.237-0.425z"></path>
<path d="M14.755 11.061c0.052-0.182-0.054-0.373-0.236-0.425s-0.373 0.053-0.425 0.236c-0.038 0.133-0.119 0.249-0.227 0.331s-0.241 0.131-0.388 0.132c-0.148-0.001-0.281-0.049-0.39-0.133s-0.189-0.201-0.226-0.335c-0.051-0.183-0.24-0.291-0.423-0.24s-0.291 0.24-0.24 0.423c0.078 0.282 0.245 0.525 0.469 0.697s0.507 0.277 0.811 0.277c0.302 0 0.584-0.102 0.806-0.273s0.39-0.411 0.47-0.689z"></path>
<path d="M17.798 13.782c-0.409 0.567-1.075 0.921-1.798 0.921-0.723 0.001-1.388-0.354-1.798-0.921-0.111-0.154-0.326-0.189-0.481-0.077s-0.189 0.326-0.077 0.48c0.537 0.743 1.408 1.206 2.356 1.206 0.95 0 1.82-0.463 2.356-1.206 0.111-0.154 0.076-0.369-0.078-0.48s-0.369-0.076-0.48 0.078z"></path>
<path d="M25.742 10.849c-0.351-7.202-8.601-10.849-9.742-10.849s-9.391 3.647-9.742 10.849c-0.315 6.465 1.053 21.151 9.742 21.151s10.057-14.686 9.742-21.151zM15.154 5.215c0.257-0.033 0.519-0.051 0.786-0.051 0.361 0 0.715 0.032 1.058 0.093 0.035 0.041 0.072 0.088 0.109 0.143 0.155 0.235 0.312 0.606 0.313 1.191 0 0.443-0.093 1.011-0.356 1.726-0.829-0.668-1.302-1.282-1.57-1.788-0.291-0.552-0.343-0.979-0.343-1.225 0-0.033 0.001-0.062 0.003-0.088zM14.562 5.32c0.001 0.334 0.079 0.856 0.412 1.484 0.148 0.281 0.347 0.583 0.612 0.899-0.264-0.106-0.529-0.206-0.777-0.311-0.428-0.18-0.803-0.382-1.057-0.65-0.128-0.134-0.228-0.284-0.3-0.467-0.059-0.151-0.097-0.328-0.109-0.536 0.386-0.181 0.794-0.322 1.219-0.42zM21.227 24.017c-0.127 0.141-0.345 0.154-0.486 0.027l-6.498-5.814c0.402 0.098 0.817 0.161 1.242 0.188l1.522 1.361 1.706-1.906c0.326-0.137 0.639-0.299 0.938-0.481 0.118 0.129 0.123 0.328 0.004 0.461l-2.134 2.386 3.68 3.293c0.142 0.127 0.154 0.344 0.027 0.486zM23.561 12.752c-0.209 0.208-0.493 0.335-0.811 0.336-0.131 0-0.258-0.023-0.38-0.066l-0.465-0.164-0.162 0.466c-0.417 1.2-1.196 2.233-2.207 2.964s-2.251 1.162-3.595 1.163c-1.339-0-2.573-0.427-3.582-1.153s-1.789-1.751-2.21-2.942l-0.153-0.431-0.441 0.121c-0.101 0.028-0.202 0.043-0.304 0.043-0.318-0-0.602-0.127-0.811-0.336s-0.336-0.493-0.336-0.811c0.001-0.318 0.128-0.602 0.336-0.811s0.493-0.336 0.811-0.336c0.020 0 0.050 0.002 0.092 0.005l0.456 0.036 0.068-0.452c0.223-1.476 0.971-2.781 2.050-3.717 0.269-0.234 0.559-0.445 0.866-0.629 0.027 0.167 0.068 0.323 0.125 0.466 0.090 0.227 0.218 0.425 0.368 0.593 0.263 0.295 0.594 0.503 0.939 0.674 0.518 0.255 1.077 0.43 1.547 0.65 0.235 0.109 0.446 0.228 0.62 0.364s0.31 0.289 0.406 0.475c0.052 0.1 0.156 0.162 0.268 0.158s0.214-0.069 0.261-0.171c0.51-1.105 0.694-1.974 0.694-2.656 0-0.466-0.087-0.843-0.211-1.139 0.808 0.257 1.543 0.675 2.169 1.219 1.079 0.939 1.827 2.247 2.047 3.726l0.073 0.488 0.488-0.075c0.065-0.010 0.122-0.015 0.174-0.015 0.318 0 0.602 0.128 0.811 0.336s0.336 0.493 0.336 0.811c-0 0.318-0.128 0.602-0.336 0.811z"></path>
</symbol>
<symbol id="icon-baby-stroller-svgrepo-com" viewBox="0 0 32 32">
<path d="M19.766 1.42c-0.759 0-1.374 0.615-1.374 1.374v9.487h-11.040v-0.747c0-3.296-2.682-5.978-5.978-5.978-0.759 0-1.374 0.615-1.374 1.374s0.615 1.374 1.374 1.374c1.781 0 3.23 1.449 3.23 3.23v6.193c0 2.050 0.673 3.945 1.81 5.476-0.609 0.776-0.973 1.752-0.973 2.813 0 2.517 2.048 4.565 4.565 4.565 2.203 0 4.046-1.569 4.472-3.648h5.792c0.426 2.079 2.269 3.648 4.472 3.648 2.517 0 4.565-2.048 4.565-4.565 0-0.538-0.094-1.054-0.266-1.533 1.819-1.683 2.959-4.088 2.959-6.755v-4.072c0-6.746-5.488-12.234-12.234-12.234zM29.152 12.281h-8.012v-8.014c4.134 0.602 7.41 3.88 8.012 8.014zM10.006 27.832c-1.002 0-1.817-0.815-1.817-1.817s0.815-1.817 1.817-1.817 1.817 0.815 1.817 1.817-0.815 1.817-1.817 1.817zM24.742 27.832c-1.002 0-1.817-0.815-1.817-1.817s0.815-1.817 1.817-1.817 1.817 0.815 1.817 1.817-0.815 1.817-1.817 1.817zM29.252 17.727c-0 1.777-0.721 3.388-1.886 4.557-0.743-0.524-1.648-0.833-2.624-0.833-1.866 0-3.474 1.126-4.18 2.734h-6.375c-0.707-1.608-2.314-2.734-4.18-2.734-0.46 0-0.904 0.069-1.323 0.196-0.834-1.088-1.331-2.447-1.331-3.92v-2.698h21.901v2.698z"></path>
</symbol>
<symbol id="icon-documents-svgrepo-com" viewBox="0 0 32 32">
<path d="M18.649 15.5c0 0 0 0 0 0 0.138 0 0.25-0.112 0.25-0.25 0-0.068-0.027-0.13-0.072-0.175l0 0-4.9-4.982c-0.045-0.046-0.108-0.075-0.178-0.075-0.138 0-0.25 0.112-0.25 0.25 0 0 0 0 0 0v0 4.482c0 0.414 0.336 0.75 0.75 0.75v0z"></path>
<path d="M12.313 16.688c-0.5-0.494-0.811-1.179-0.813-1.937v-5.75h-4.5c-2.206 0.007-3.993 1.794-4 3.999v14.001c0 2.209 1.791 4 4 4v0h9c2.209 0 4-1.791 4-4v0-9.5h-5.75c-0.758-0.001-1.444-0.312-1.937-0.812l-0-0z"></path>
<path d="M23.25 7.5h4.399c0 0 0 0 0 0 0.138 0 0.25-0.112 0.25-0.25 0-0.068-0.027-0.13-0.072-0.175l0 0-4.9-4.982c-0.045-0.046-0.108-0.075-0.178-0.075-0.138 0-0.25 0.112-0.25 0.25 0 0 0 0 0 0v0 4.482c0 0.414 0.336 0.75 0.75 0.75v0z"></path>
<path d="M23.25 9.5c-1.514-0.012-2.738-1.236-2.75-2.749v-5.751h-6.75c-2.070 0.002-3.748 1.68-3.75 3.75v2.25h2.633c0.706 0.003 1.345 0.293 1.805 0.758l0 0 6.822 6.938c0.457 0.464 0.739 1.101 0.739 1.804 0 0.003 0 0.006-0 0.009v-0 8.491h3.316c2.032 0 3.684-1.683 3.684-3.75v-11.75z"></path>
</symbol>
<symbol id="icon-heroicons-solid_menu" viewBox="0 0 32 32">
<path d="M4.799 8.001c0-0.424 0.169-0.831 0.469-1.131s0.707-0.469 1.131-0.469h19.2c0.424 0 0.831 0.169 1.131 0.469s0.469 0.707 0.469 1.131-0.169 0.831-0.469 1.131c-0.3 0.3-0.707 0.469-1.131 0.469h-19.2c-0.424 0-0.831-0.169-1.131-0.469s-0.469-0.707-0.469-1.131z"></path>
<path d="M4.799 16.001c0-0.424 0.169-0.831 0.469-1.131s0.707-0.469 1.131-0.469h19.2c0.424 0 0.831 0.169 1.131 0.469s0.469 0.707 0.469 1.131c0 0.424-0.169 0.831-0.469 1.131s-0.707 0.469-1.131 0.469h-19.2c-0.424 0-0.831-0.169-1.131-0.469s-0.469-0.707-0.469-1.131z"></path>
<path d="M4.799 24.001c0-0.424 0.169-0.831 0.469-1.131s0.707-0.469 1.131-0.469h19.2c0.424 0 0.831 0.169 1.131 0.469s0.469 0.707 0.469 1.131c0 0.424-0.169 0.831-0.469 1.131s-0.707 0.469-1.131 0.469h-19.2c-0.424 0-0.831-0.169-1.131-0.469s-0.469-0.707-0.469-1.131z"></path>
</symbol>
<symbol id="icon-hospital-svgrepo-com" viewBox="0 0 32 32">
<path d="M12.607 0.64c-1.301 0-2.367 1.066-2.367 2.368v6.849c0 1.301 1.066 2.367 2.367 2.367h6.849c1.301 0 2.367-1.066 2.367-2.367v-6.849c0-0.001 0-0.002 0-0.002 0-0.014-0-0.028-0.001-0.042l0 0.002c-0.085-1.276-1.129-2.325-2.43-2.325h-6.785zM12.607 1.92h6.785c0.618 0 1.107 0.485 1.151 1.127v6.809c0 0.619-0.469 1.088-1.087 1.088h-6.849c-0.619 0-1.088-0.469-1.088-1.088v-6.849c0-0.619 0.469-1.087 1.088-1.087zM15.36 3.84v1.92h-1.92v1.28h1.92v1.92h1.28v-1.92h1.92v-1.28h-1.92v-1.92h-1.28zM4.287 5.76c-1.306 0-2.368 1.062-2.368 2.367v21.313h11.52v-7.68h5.12v7.68h12.16v-21.313c0-1.306-1.062-2.367-2.367-2.367h-5.249v4.096c0 2.010-1.638 3.648-3.648 3.648h-6.849c-2.010 0-3.648-1.638-3.648-3.648v-4.096h-4.673zM5.12 14.72h4.48v3.84h-4.48v-3.84zM13.44 14.72h5.12v3.84h-5.12v-3.84zM22.4 14.72h4.48v3.84h-4.48v-3.84zM5.12 21.76h4.48v3.84h-4.48v-3.84zM22.4 21.76h4.48v3.84h-4.48v-3.84z"></path>
</symbol>
<symbol id="icon-wallet" viewBox="0 0 32 32">
<path d="M16 20c0-1.105 0.895-2 2-2s2 0.895 2 2c0 1.105-0.895 2-2 2s-2-0.895-2-2zM29.001 13c-0.001 0-0.001 0 0 0l-0.001-6v-3c0-1.657-1.344-3-3-3h-20.5c-3.033 0-5.5 2.468-5.5 5.5v20c0 3.032 2.467 5.5 5.5 5.5h18c3.032 0 5.5-2.468 5.5-5.5v-1.5c0 0 0 0 0.001 0 3.998-3.001 3.998-8.999 0-12zM5.5 3h20.5c0.551 0 1 0.448 1 1v6.184c-0.314-0.112-0.648-0.184-1-0.184h-0.001v-5c0-0.553-0.448-1-1-1h-21c-0.552 0-1 0.447-1 1v3.943c-0.617-0.631-0.999-1.491-0.999-2.443 0-1.933 1.566-3.5 3.5-3.5zM24.999 6h-21v-1h21v1zM24.999 7v1h-21v-1h21zM24.999 9v1h-19.499c-0.54 0-1.044-0.132-1.5-0.35v-0.65h20.999zM27 26.5c0 1.933-1.567 3.5-3.5 3.5h-18c-1.934 0-3.5-1.567-3.5-3.5v-15.761c0.951 0.787 2.171 1.261 3.5 1.261h20.5c0.551 0 1 0.448 1 1v2h-9c-2.762 0-5 2.238-5 5s2.239 5 5 5h9v1.5zM28.277 23h-10.277c-1.654 0-3-1.346-3-3s1.346-3 3-3h9c0.617-0.008 1.229-0.307 1.602-0.804 0.104-0.14 0.185-0.297 0.25-0.461 0.009-0.022 0.025-0.039 0.033-0.062 0.719 0.943 1.115 2.099 1.115 3.327 0 1.538-0.621 2.965-1.723 4z"></path>
</symbol>
<symbol id="icon-pregnant-svgrepo-com" viewBox="0 0 32 32">
<path d="M21 4c0 2.209-1.791 4-4 4s-4-1.791-4-4 1.791-4 4-4 4 1.791 4 4zM20.294 16.577c0.66-0.681 1.758-0.814 2.499-0.183 0.841 0.718 0.885 2.006 0.131 2.784l-2.591 2.676c-0.077 0.080-0.184 0.129-0.303 0.129s-0.227-0.050-0.303-0.129l-0-0-2.592-2.676c-0.753-0.777-0.708-2.067 0.133-2.784 0.734-0.626 1.825-0.511 2.499 0.183l0.264 0.272 0.264-0.272zM10.243 10.377l-3.998 6.239c-0.452 0.711-0.261 1.665 0.429 2.132s1.616 0.269 2.068-0.442c1.125-1.755 2.249-3.511 3.374-5.266 0.357-0.558 0.724-0.815 1.113-0.856 0.121 0.762 0.236 1.522 0.32 2.298v1.482c-0.566 2.46-1.092 4.993-1.712 7.433-0.129 0.503-0.234 0.91 0.204 1.337 0.232 0.226 0.485 0.271 0.802 0.271l1.158-0.005v5c0 1.128 0.879 2 2 2h2c1.15-0.005 2-0.855 2-2v-5h3c0.657 0 1.093-0.336 1.093-1.016v-1c1.381-1.023 2-2.297 2-4 0-3.509-2.093-4.984-4.093-5.984-0.544-0.272-1.668-1.186-2-2-0.472-1.155-0.366-2-1.714-2h-4.737c-1.144 0-2.661 0.364-3.306 1.377z"></path>
</symbol>
<symbol id="icon-file_copy" viewBox="0 0 24 24">
<path d="M14.016 12h5.484l-5.484-5.484v5.484zM15 5.016l6 6v9.984q0 0.797-0.609 1.406t-1.406 0.609h-11.016q-0.797 0-1.383-0.609t-0.586-1.406v-14.016q0-0.797 0.609-1.383t1.406-0.586h6.984zM15.984 0.984v2.016h-12v14.016h-1.969v-14.016q0-0.797 0.586-1.406t1.383-0.609h12z"></path>
</symbol>
<symbol id="icon-local_hospital" viewBox="0 0 24 24">
<path d="M18 14.016v-4.031h-3.984v-3.984h-4.031v3.984h-3.984v4.031h3.984v3.984h4.031v-3.984h3.984zM18.984 3q0.797 0 1.406 0.609t0.609 1.406v13.969q0 0.797-0.609 1.406t-1.406 0.609h-13.969q-0.797 0-1.406-0.609t-0.609-1.406v-13.969q0-0.797 0.609-1.406t1.406-0.609h13.969z"></path>
</symbol>
<symbol id="icon-pregnant_woman" viewBox="0 0 24 24">
<path d="M15.984 12.984v4.031h-3v4.969h-3v-4.969h-1.969v-7.031q0-1.219 0.891-2.109t2.109-0.891 2.109 0.891 0.891 2.109q0.797 0.328 1.383 1.219t0.586 1.781zM9 3.984q0-0.844 0.586-1.406t1.43-0.563 1.406 0.563 0.563 1.406-0.563 1.43-1.406 0.586-1.43-0.586-0.586-1.43z"></path>
</symbol>
</defs>
</svg>
